<svg xmlns="http://www.w3.org/2000/svg" enable-background="new 0 0 512 512" viewBox="0 0 512 512" id="cash-payment">
  <g>
    <g>
      <linearGradient id="a" x1="284.966" x2="226.578" y1="-205.851" y2="880.166" gradientUnits="userSpaceOnUse">
        <stop offset="0" stop-color="#eae9fe"></stop>
        <stop offset=".424" stop-color="#eeeefe"></stop>
        <stop offset=".897" stop-color="#fbfbff"></stop>
        <stop offset="1" stop-color="#fff"></stop>
      </linearGradient>
      <path fill="url(#a)" d="M468.836,264.275c-9.502-7.393-20.977-13.763-25.396-24.961
			c-6.009-15.229,3.597-31.571,9.261-46.931c17.296-46.9-4.903-102.439-44.732-132.645
			c-75.982-57.623-224.302-37.425-245.028,42.219c-8.768,33.692,6.94,72.131-9.131,103.013
			c-20.278,38.966-74.073,41.594-108.719,58.921C2.169,285.358-6.419,332.1,24.365,367.686
			c11.304,13.068,25.769,22.07,36.136,36.348c15.001,20.659,23.415,43.504,43.486,60.545c28.263,23.996,75.517,29.946,100.538,2.586
			c14.09-15.407,18.675-38.106,34.054-52.225c20.245-18.586,52.242-16.086,78.004-6.514c25.762,9.571,49.655,25.026,76.789,29.381
			c42.426,6.81,87.917-18.085,105.053-57.489C515.561,340.912,502.748,290.664,468.836,264.275z"></path>
      <g>
        <path fill="#5edb6b" d="M216.049,70.616l138.006-0.002c6.799,0,12.31,5.511,12.31,12.31l0,216.604
				c0,6.799-5.511,12.31-12.31,12.31l-138.006,0.002c-6.799,0-12.31-5.511-12.31-12.31l0-216.604
				C203.739,76.128,209.251,70.616,216.049,70.616z"></path>
        <path fill="#ededed" d="M325.331,291.323l-80.558,0.001c0-11.331-9.186-20.517-20.517-20.517l0-159.157
				c11.331,0,20.517-9.186,20.517-20.517l80.558-0.001c0,11.331,9.186,20.517,20.517,20.517l0,159.157
				C334.517,270.806,325.331,279.992,325.331,291.323z"></path>
        <circle cx="285.052" cy="191.228" r="37.672" fill="#5edb6b" transform="rotate(-62.51 285.054 191.224)"></circle>
        <circle cx="285.047" cy="125.873" r="10.542" fill="#5edb6b" transform="rotate(-62.51 285.049 125.87)"></circle>
        <circle cx="285.052" cy="256.582" r="10.542" fill="#5edb6b" transform="rotate(-62.51 285.055 256.579)"></circle>
        <path fill="#ff5859" d="M279.245,395.08v39.165c0,3.942-3.196,7.138-7.138,7.138H152.773
				c-3.942,0-7.138-3.196-7.138-7.138V395.08c0-3.942,3.196-7.138,7.138-7.138h119.334
				C276.049,387.942,279.245,391.137,279.245,395.08z"></path>
        <path fill="#ededed" d="M293.887,311.847v26.055c0,25.055-25.412,31.908-25.412,31.908v18.125H156.404V250.387
				c0-11.992,5.211-23.414,14.277-31.266l33.122-28.625v92.155l43.472-41.902c3.141-2.998,7.21-4.569,11.278-4.569
				c3.855,0,7.638,1.356,10.707,3.997c10.422,9.137,11.85,24.841,3.07,35.548l-29.124,35.977l-0.143,0.142H293.887z"></path>
        <path fill="#332e8e" d="M354.055,66.865H216.049c-8.856,0-16.061,7.205-16.061,16.062v105.908l-31.763,27.452
				c-9.896,8.572-15.571,20.999-15.571,34.099v133.818c-5.949,0.066-10.77,4.914-10.77,10.877v39.165
				c0,6.003,4.884,10.889,10.889,10.889h119.333c6.005,0,10.889-4.885,10.889-10.889v-39.165c0-5.963-4.821-10.811-10.77-10.877
				v-11.665c10.094-3.74,25.413-14.502,25.413-34.636v-22.312h56.418c8.855-0.002,16.06-7.209,16.06-16.062V82.925
				C370.116,74.07,362.911,66.865,354.055,66.865z M275.495,395.081v39.165c0,1.868-1.52,3.389-3.389,3.389H152.773
				c-1.869,0-3.389-1.521-3.389-3.389v-39.165c0-1.868,1.52-3.389,3.389-3.389h119.333
				C273.975,391.692,275.495,393.213,275.495,395.081z M290.138,337.903c0,21.804-21.724,28.035-22.639,28.286
				c-1.637,0.442-2.773,1.926-2.773,3.621v14.375h-104.57V250.386c0-10.923,4.731-21.284,12.979-28.428l26.855-23.209v55.171h0.063
				v28.731c0,1.504,0.898,2.864,2.283,3.452c1.389,0.588,2.988,0.291,4.07-0.752l43.459-41.89c4.816-4.595,12.05-4.657,16.924-0.464
				c8.981,7.874,10.142,21.206,2.627,30.371l-29.015,35.84c-0.924,0.93-1.243,2.257-0.944,3.506
				c-0.278,0.992-0.161,2.089,0.437,3.025c8.01,12.55,7.537,32.933-6.105,40.269c-1.824,0.981-2.506,3.257-1.525,5.081
				c0.677,1.257,1.97,1.973,3.306,1.973c0.599,0,1.208-0.144,1.774-0.447c16.251-8.745,18.903-30.619,11.016-47.017h41.779V337.903z
				 M280.699,251.397c1.177-0.998,2.691-1.607,4.353-1.607c3.745,0,6.792,3.047,6.792,6.792s-3.047,6.792-6.792,6.792
				c-1.212,0-2.338-0.335-3.32-0.896C282.102,258.76,281.748,254.998,280.699,251.397z M279.965,269.892
				c1.585,0.613,3.289,0.982,5.088,0.982c7.881,0,14.292-6.411,14.292-14.292s-6.411-14.292-14.292-14.292
				c-2.727,0-5.258,0.794-7.428,2.125c-1.558-2.579-3.521-4.979-5.919-7.081c-7.798-6.706-19.377-6.593-27.032,0.715l-16.666,16.064
				V115.113c10.385-1.619,18.611-9.844,20.228-20.229l73.635-0.002c1.617,10.386,9.844,18.611,20.228,20.229v152.234
				c-10.385,1.619-18.611,9.844-20.228,20.229h-54.305l7.664-9.468C277.308,275.571,278.864,272.79,279.965,269.892z
				 M362.616,299.529c0,4.719-3.842,8.56-8.561,8.562h-103.1l10.538-13.018h63.837c2.072,0,3.75-1.68,3.75-3.75
				c0-9.246,7.522-16.768,16.768-16.768c2.072,0,3.75-1.68,3.75-3.75V111.648c0-2.07-1.678-3.75-3.75-3.75
				c-9.246,0-16.768-7.522-16.768-16.768c0-0.994-0.396-1.948-1.099-2.651s-1.656-1.099-2.651-1.099l-80.557,0.002
				c-2.072,0-3.75,1.68-3.75,3.75c0,9.246-7.522,16.768-16.768,16.768c-2.072,0-3.75,1.68-3.75,3.75v149.692l-12.954,12.486v-83.333
				c0-0.151-0.046-0.291-0.063-0.438V82.927c0-4.722,3.84-8.562,8.561-8.562h138.005c4.72,0,8.561,3.84,8.561,8.56V299.529z"></path>
        <path fill="#332e8e" d="M326.474 191.228c0-22.842-18.582-41.423-41.422-41.423s-41.422 18.582-41.422 41.423c0 22.839 18.582 41.421 41.422 41.421S326.474 214.068 326.474 191.228zM285.052 225.149c-18.705 0-33.922-15.217-33.922-33.921 0-18.706 15.217-33.923 33.922-33.923s33.922 15.217 33.922 33.923C318.974 209.932 303.757 225.149 285.052 225.149zM285.048 140.166c7.88-.002 14.291-6.414 14.291-14.292 0-7.881-6.411-14.292-14.292-14.292s-14.292 6.411-14.292 14.292S277.166 140.166 285.048 140.166zM285.047 119.082c3.745 0 6.792 3.047 6.792 6.792 0 3.743-3.048 6.79-6.792 6.792-3.745 0-6.792-3.047-6.792-6.792S281.302 119.082 285.047 119.082z"></path>
        <path fill="#332e8e" d="M309.869,187.464h-0.69c-1.635-5.907-7.045-10.264-13.466-10.264
				c-7.743,0-14.042,6.266-14.05,13.97c0,0.015-0.004,0.028-0.004,0.043c0,0.001,0,0.002,0,0.004
				c-0.018,3.595-2.915,6.517-6.48,6.517c-3.601,0-6.53-2.922-6.548-6.517c0-0.001,0-0.002,0-0.004c0-0.011-0.003-0.022-0.003-0.033
				c0.002-3.575,2.94-6.481,6.551-6.481c2.072,0,3.75-1.68,3.75-3.75s-1.678-3.75-3.75-3.75c-6.452,0-11.888,4.356-13.531,10.264
				h-1.423c-2.072,0-3.75,1.68-3.75,3.75s1.678,3.75,3.75,3.75h1.433c1.657,5.915,7.083,10.271,13.52,10.271
				c7.616,0,13.818-6.153,13.969-13.77c0.006-0.085,0.025-0.165,0.025-0.251c0-0.023-0.007-0.045-0.007-0.069
				c0.022-3.558,2.948-6.445,6.546-6.445c3.574,0,6.482,2.906,6.484,6.481c0,0.011-0.003,0.022-0.003,0.033c0,0.001,0,0.002,0,0.004
				c-0.018,3.595-2.917,6.517-6.481,6.517c-2.072,0-3.75,1.68-3.75,3.75s1.678,3.75,3.75,3.75c6.406,0,11.807-4.356,13.456-10.271
				h0.701c2.072,0,3.75-1.68,3.75-3.75S311.941,187.464,309.869,187.464z"></path>
      </g>
    </g>
  </g>
</svg>
